<?xml version="1.0" encoding="utf-8"?>
<!-- Generator: Adobe Illustrator 17.1.0, SVG Export Plug-In . SVG Version: 6.00 Build 0)  -->
<!DOCTYPE svg PUBLIC "-//W3C//DTD SVG 1.1//EN" "http://www.w3.org/Graphics/SVG/1.1/DTD/svg11.dtd">
<svg version="1.1" xmlns="http://www.w3.org/2000/svg" xmlns:xlink="http://www.w3.org/1999/xlink" x="0px" y="0px"
	 viewBox="0 0 159.3 37.6" enable-background="new 0 0 159.3 37.6" xml:space="preserve">
<g id="Layer_1">
</g>
<g id="Layer_2">
	<g>
		<path fill="#0D1343" d="M18.8,0C8.4,0,0,8.4,0,18.8c0,3.8,1.1,7.4,3.2,10.5v0c0,0,0,0,0,0c0.1,0.2,0.3,0.4,0.4,0.6
			c0.1,0.2,0.2,0.3,0.4,0.5c0.1,0.1,0.1,0.1,0.2,0.2c1,1.3,2.3,2.5,3.6,3.5c0.1,0,0.1,0.1,0.2,0.1c3.2,2.2,6.9,3.4,10.8,3.4
			s7.7-1.2,10.8-3.4c0.1,0,0.1-0.1,0.2-0.1c1.2-0.9,2.3-1.9,3.2-3l0.2-0.2c0.3-0.3,0.5-0.6,0.8-1h0c0.1-0.2,0.3-0.4,0.4-0.6
			c1-1.5,1.9-3.2,2.4-5c0.5-1.8,0.8-3.6,0.8-5.5C37.6,8.4,29.2,0,18.8,0z M22.8,8.9L22.8,8.9c0.7,0.1,1.3,0.5,1.5,1.2
			c0.1,0.5,0.3,1.7,0.4,2.6c0,0.2-0.1,0.3-0.3,0.3H13.1c-0.2,0-0.3-0.1-0.3-0.3c0.1-0.9,0.3-2.1,0.4-2.6c0.2-0.7,0.7-1.1,1.4-1.2
			l0,0c0,0,2.5-0.4,4-0.4C20.4,8.5,22.8,8.9,22.8,8.9z M19.8,14.4c-0.2,0.4-0.6,0.6-1,0.6c-0.4,0-0.8-0.3-1-0.6H19.8z M12.5,35.1
			c-0.3-0.1-0.6-0.2-0.9-0.4c-0.3-0.1-0.2-0.5,0.1-0.5h0.5c0.1,0,0.3,0.1,0.3,0.3V35.1z M26,34.7c-0.4,0.2-0.8,0.3-1.2,0.5h0v-0.7
			c0-0.1,0.1-0.3,0.3-0.3h0.9C26.1,34.2,26.2,34.6,26,34.7z M32.5,29.6c-0.1,0.1-0.2,0.2-0.2,0.3c-0.1,0.1-0.1,0.2-0.2,0.3l-0.1,0.1
			c0,0-0.1,0.1-0.1,0.1c-0.2,0.2-0.3,0.4-0.5,0.6c-0.6,0.6-1.3,1.2-2,1.8c0,0-0.1,0.1-0.2,0.1h-5.3c-0.1,0-0.3-0.1-0.3-0.3l0.1-2.1
			c0-0.1-0.1-0.3-0.3-0.3h-0.9c-0.1,0-0.2,0.1-0.3,0.2l-0.1,2.4H22c-0.3,0-0.6,0.3-0.6,0.6v0.8h1.7c0.1,0,0.3,0.1,0.3,0.3v1.2
			c-1.5,0.4-3,0.6-4.5,0.6c-1.7,0-3.3-0.2-4.9-0.7h0v-1.1c0-0.1,0.1-0.3,0.3-0.3h1.5v-1c0-0.3-0.2-0.5-0.5-0.5H15l-0.1-2.4
			c0-0.1-0.1-0.2-0.3-0.2h-0.9c-0.1,0-0.3,0.1-0.3,0.3l0.1,2.4H8.5c-0.1,0-0.1,0-0.1,0c-0.3-0.2-0.5-0.4-0.8-0.6
			c-0.3-0.2-0.5-0.4-0.7-0.7c0,0,0,0-0.1-0.1c-0.2-0.2-0.4-0.4-0.6-0.6c-0.1-0.1-0.2-0.2-0.2-0.2c0,0,0,0-0.1-0.1
			c-0.2-0.2-0.3-0.3-0.4-0.5c0,0-0.1-0.1-0.1-0.1c-0.1-0.1-0.1-0.1-0.2-0.2c-0.1-0.2-0.3-0.3-0.4-0.5h27.4
			C32.5,29.2,32.6,29.5,32.5,29.6z M5.6,27.3L5.6,27.3l0.1-1.7c0-0.1,0.1-0.2,0.3-0.2h7c0.1,0,0.2,0.1,0.3,0.2l0.1,1.6v0H5.6z
			 M23.9,27.3L23.9,27.3l0.1-1.7c0-0.1,0.1-0.2,0.3-0.2h7.1c0.1,0,0.2,0.1,0.3,0.2l0.1,1.6v0H23.9z M34,27.3
			C34,27.3,34,27.3,34,27.3l-1,0v0l-0.2-3.1c0-0.1-0.1-0.2-0.3-0.2h-9.7c-0.1,0-0.2,0.1-0.3,0.2l-0.2,3.1v0h-7.8v0l-0.2-3.1
			c0-0.1-0.1-0.2-0.3-0.2H4.6c-0.1,0-0.2,0.1-0.3,0.2l-0.2,3.1v0H3.6c0,0,0,0,0,0c-1.5-2.6-2.2-5.5-2.2-8.5c0-9.4,7.4-17,16.7-17.4
			h0V5h-0.4v1.4h0.4v0.7h0c-1.5,0.1-3.3,0.3-3.5,0.4c-1.2,0.1-2.3,1-2.6,2.2c-0.2,0.6-0.4,2.1-0.5,3c0,0.1-0.1,0.2-0.3,0.2H11
			c-0.1,0-0.3,0.1-0.3,0.3v0.9c0,0.1,0.1,0.3,0.3,0.3h5.5c0,0.1,0.1,0.3,0.1,0.4c0.4,0.9,1.3,1.5,2.3,1.5c1,0,1.9-0.6,2.3-1.5
			c0.1-0.1,0.1-0.3,0.1-0.4h5.5c0.1,0,0.3-0.1,0.3-0.3v-0.9c0-0.1-0.1-0.3-0.3-0.3h-0.2c-0.1,0-0.2-0.1-0.3-0.2
			c-0.1-0.9-0.3-2.4-0.5-3c-0.4-1.2-1.4-2.1-2.6-2.2c-0.2,0-2-0.3-3.5-0.4h0V6.4h0.4V5h-0.4V1.4h0c9.3,0.4,16.7,8,16.7,17.4
			C36.2,21.8,35.4,24.8,34,27.3z"/>
		<g>
			<g>
				<path fill="#0D1343" d="M47.4,11.6c0-4.8,3.6-7.2,7-7.2c3.4,0,7,2.4,7,7.2v0.5c0,0.6-0.4,1-1,1h-2.2c-0.5,0-1-0.4-1-1v-0.5
					c0-2-1.3-3-2.8-3c-1.5,0-2.8,0.9-2.8,3v15.5c0,2,1.3,3,2.8,3c1.5,0,2.8-0.9,2.8-3v-4.5c0-0.6-0.5-1-1-1h-1.3c-0.6,0-1-0.4-1-1
					v-1.7c0-0.6,0.4-1,1-1H59c1.4,0,2.5,1.1,2.5,2.5v6.8c0,4.8-3.6,7.2-7,7.2c-3.4,0-7-2.4-7-7.2V11.6z"/>
			</g>
			<g>
				<path fill="#0D1343" d="M73,4.7h2.5c0.5,0,0.9,0.3,1,0.8l6.2,27.6c0.1,0.4-0.2,0.9-0.7,0.9h-2.7c-0.3,0-0.6-0.2-0.7-0.6l-1-5.1
					c-0.1-0.4-0.4-0.7-0.7-0.8l-4.6-0.8c-0.2,0-0.5,0.1-0.5,0.4l-0.7,4.1c-0.3,1.6-1.7,2.7-3.3,2.7h-0.5c-0.5,0-0.8-0.4-0.7-0.9
					l6.3-28.2C72.8,4.8,72.9,4.7,73,4.7z M74.4,13.6l-1.8,9.1c0,0.1,0.1,0.3,0.2,0.3l3.7,0.7c0,0,0.1,0,0.1-0.1l-2-10
					C74.6,13.5,74.4,13.5,74.4,13.6z"/>
			</g>
			<g>
				<path fill="#0D1343" d="M89.6,8.7h-4.1c-0.3,0-0.5-0.2-0.5-0.5V5.7c0-0.6,0.4-1,1-1H98c0.5,0,1,0.4,1,1v2.5
					c0,0.2-0.2,0.4-0.4,0.4h-4.1c-0.2,0-0.3,0.1-0.3,0.3v24c0,0.6-0.4,1-1,1h-2.2c-0.6,0-1-0.4-1-1V9C89.9,8.8,89.8,8.7,89.6,8.7z"
					/>
			</g>
			<g>
				<path fill="#0D1343" d="M104.7,4.7h2.9c0.6,0,1,0.4,1,1v11c0,0.3,0.2,0.5,0.5,0.5h4.1c0.3,0,0.6-0.3,0.6-0.6v-11
					c0-0.6,0.4-1,1-1h2.9c0.2,0,0.3,0.1,0.3,0.3v28.7c0,0.1-0.1,0.3-0.3,0.3h-2.9c-0.6,0-1-0.4-1-1V21.5c0-0.3-0.2-0.5-0.5-0.5h-4.1
					c-0.3,0-0.5,0.2-0.5,0.5V33c0,0.6-0.4,1-1,1h-3c-0.1,0-0.2-0.1-0.2-0.2V5C104.4,4.8,104.5,4.7,104.7,4.7z"/>
			</g>
			<g>
				<path fill="#0D1343" d="M125.9,4.7h11c0.6,0,1,0.4,1,1V7c0,0.9-0.7,1.6-1.6,1.6h-6.4c-0.2,0-0.3,0.1-0.3,0.3v7.4
					c0,0.5,0.4,0.9,0.9,0.9h5.3c0.6,0,1,0.4,1,1v2c0,0.6-0.4,1-1,1h-5.4c-0.4,0-0.8,0.4-0.8,0.8v7.4c0,0.2,0.2,0.4,0.4,0.4h6.9
					c0.6,0,1,0.4,1,1V33c0,0.6-0.4,1-1,1h-11.1c-0.2,0-0.4-0.2-0.4-0.4V5.2C125.3,4.9,125.6,4.7,125.9,4.7z"/>
			</g>
			<g>
				<path fill="#0D1343" d="M144.4,5.2c0-0.3,0.2-0.5,0.5-0.5h6.2c5,0,7.4,2.9,7.4,8.6c0,3.1-0.8,5.5-3.1,7c-0.3,0.2-0.4,0.6-0.3,1
					l4.1,12.2c0.1,0.4-0.2,0.8-0.6,0.8h-0.4c-1.9,0-3.6-1.3-4.2-3.1l-2.8-9c-0.1-0.4-0.5-0.7-0.9-0.7h-0.9c-0.5,0-0.8,0.4-0.8,0.8
					V33c0,0.5-0.4,1-1,1h-2.1c-0.6,0-1.1-0.5-1.1-1.1V5.2z M148.6,16.9c0,0.5,0.4,0.9,0.9,0.9h0.5c3.4,0,4.3-1.7,4.3-4.4
					c0-3.1-0.4-4.8-3.6-4.8h-1.4c-0.4,0-0.7,0.3-0.7,0.7V16.9z"/>
			</g>
		</g>
	</g>
</g>
</svg>
